<svg width="30" height="30" viewBox="0 0 30 30" fill="none" xmlns="http://www.w3.org/2000/svg">
<path d="M21.51 -0.00012207C26.595 -0.00012207 30 3.56988 30 8.87988V21.1364C30 26.4299 26.595 29.9999 21.51 29.9999H8.505C3.42 29.9999 0 26.4299 0 21.1364V8.87988C0 3.56988 3.42 -0.00012207 8.505 -0.00012207H21.51ZM21.27 10.4999C20.76 9.98988 19.92 9.98988 19.41 10.4999L13.215 16.6949L10.59 14.0699C10.08 13.5599 9.24 13.5599 8.73 14.0699C8.22 14.5799 8.22 15.4049 8.73 15.9299L12.3 19.4849C12.555 19.7399 12.885 19.8599 13.215 19.8599C13.56 19.8599 13.89 19.7399 14.145 19.4849L21.27 12.3599C21.78 11.8499 21.78 11.0249 21.27 10.4999Z" fill="#07DC61"/>
</svg>
